HIERARCHY
ROOT Hips
{
    OFFSET 0.000000 0.000000 0.000000
    CHANNELS 6 Xposition Yposition Zposition Zrotation Xrotation Yrotation
    JOINT Spine
    {
        OFFSET -0.000000 7.856138 0.000000
        CHANNELS 3 Zrotation Xrotation Yrotation
        JOINT Spine1
        {
            OFFSET -0.000000 20.830866 0.000000
            CHANNELS 3 Zrotation Xrotation Yrotation
            JOINT Neck
            {
                OFFSET -0.000000 20.745317 1.885938
                CHANNELS 3 Zrotation Xrotation Yrotation
                JOINT Head
                {
                    OFFSET -0.000000 13.412918 -1.916131
                    CHANNELS 3 Zrotation Xrotation Yrotation
                    End Site
                    {
                        OFFSET -0.000000 23.951641 0.000000
                    }
                }
            }
            JOINT LeftShoulder
            {
                OFFSET 3.826675 19.078362 -0.073511
                CHANNELS 3 Zrotation Xrotation Yrotation
                JOINT LeftArm
                {
                    OFFSET 10.442133 0.000000 0.000000
                    CHANNELS 3 Zrotation Xrotation Yrotation
                    JOINT LeftForeArm
                    {
                        OFFSET 37.051945 0.000000 0.000000
                        CHANNELS 3 Zrotation Xrotation Yrotation
                        JOINT LeftHand
                        {
                            OFFSET 24.394852 0.000000 0.000000
                            CHANNELS 3 Zrotation Xrotation Yrotation
                            End Site
                            {
                                OFFSET 14.370985 0.000000 0.000000
                            }
                        }
                    }
                }
            }
            JOINT RightShoulder
            {
                OFFSET -3.827599 19.078362 -0.073511
                CHANNELS 3 Zrotation Xrotation Yrotation
                JOINT RightArm
                {
                    OFFSET -10.442133 0.000000 0.000000
                    CHANNELS 3 Zrotation Xrotation Yrotation
                    JOINT RightForeArm
                    {
                        OFFSET -37.051945 0.000000 0.000000
                        CHANNELS 3 Zrotation Xrotation Yrotation
                        JOINT RightHand
                        {
                            OFFSET -24.394852 0.000000 0.000000
                            CHANNELS 3 Zrotation Xrotation Yrotation
                            End Site
                            {
                                OFFSET -14.370985 0.000000 0.000000
                            }
                        }
                    }
                }
            }
        }
    }
    JOINT LeftUpLeg
    {
        OFFSET 9.580656 0.000000 0.000000
        CHANNELS 3 Zrotation Xrotation Yrotation
        JOINT LeftLeg
        {
            OFFSET -0.000000 -43.769192 0.000000
            CHANNELS 3 Zrotation Xrotation Yrotation
            JOINT LeftFoot
            {
                OFFSET -0.000000 -42.531967 0.000000
                CHANNELS 3 Zrotation Xrotation Yrotation
                JOINT LeftToeBase
                {
                    OFFSET -0.000000 -6.227426 14.370985
                    CHANNELS 3 Zrotation Xrotation Yrotation
                    End Site
                    {
                        OFFSET -0.000000 0.000000 3.832262
                    }
                }
            }
        }
    }
    JOINT RightUpLeg
    {
        OFFSET -9.580656 0.000000 0.000000
        CHANNELS 3 Zrotation Xrotation Yrotation
        JOINT RightLeg
        {
            OFFSET -0.000000 -43.769192 0.000000
            CHANNELS 3 Zrotation Xrotation Yrotation
            JOINT RightFoot
            {
                OFFSET -0.000000 -42.531967 0.000000
                CHANNELS 3 Zrotation Xrotation Yrotation
                JOINT RightToeBase
                {
                    OFFSET -0.000000 -6.227426 14.370985
                    CHANNELS 3 Zrotation Xrotation Yrotation
                    End Site
                    {
                        OFFSET -0.000000 0.000000 3.832262
                    }
                }
            }
        }
    }
}
MOTION
Frames:    9
Frame Time:    0.008333
-37.031071    93.331085    34.561047    0.835854    -0.985063    86.991043    0.872793    -5.580537    1.615214    0.739064    3.429076    1.550570    -3.406040    1.089227    -2.380054    13.431236    5.383342    -0.703455    13.181290    -1.143620    5.927629    -13.623322    8.124906    -11.876369    4.301411    0.097783    -3.765305    18.981270    -0.498769    -4.413284    -13.437541    1.066804    2.265345    17.381510    0.922939    3.924108    -5.747329    -0.611405    5.751056    -14.397930    -0.249982    -0.575178    3.316395    8.599800    0.619353    -3.623291    -4.929517    10.038223    4.919471    -4.633671    5.784290    0.000000    0.000000    0.000000    -1.874604    2.997426    -1.176410    2.215433    0.817187    -11.851209    1.444272    -3.986262    4.065483    0.000000    0.000000    0.000000    
-37.059212    93.340286    34.561237    0.772583    -1.005325    86.878738    0.885148    -5.510365    1.660555    0.678014    3.293106    1.598476    -3.606074    1.050129    -2.776618    13.621469    5.294193    -1.058458    13.244571    -1.103608    5.938202    -13.648894    7.912556    -11.912077    4.162813    0.288349    -3.742191    19.175901    -0.334322    -4.490338    -13.340129    1.053756    2.231930    17.352459    0.914996    3.945202    -5.688264    -0.597713    5.762188    -14.569241    -0.228682    -0.646381    3.331725    8.573192    0.620301    -3.632907    -5.000499    10.121228    4.891689    -4.588126    5.817593    0.000000    0.000000    0.000000    -1.862308    2.972430    -1.089319    2.226429    0.673067    -11.954572    1.461087    -3.855129    4.183644    0.000000    0.000000    0.000000    
-37.081444    93.348846    34.561737    0.724901    -1.016571    86.768570    0.851409    -5.447114    1.681557    0.744372    3.193003    1.620351    -3.873789    1.207735    -3.166869    13.665646    4.820673    -1.372581    13.174567    -1.112021    5.966288    -13.634109    7.883100    -11.902141    4.181722    0.414928    -3.640391    18.687029    -0.243659    -4.807442    -13.423586    1.062196    2.231670    17.412275    0.931258    3.979778    -5.699194    -0.557524    5.790416    -14.516981    -0.179065    -0.706850    3.334574    8.576388    0.588574    -3.624067    -5.094130    10.228264    4.869483    -4.526402    5.828039    0.000000    0.000000    0.000000    -1.866636    2.953130    -1.019741    2.256539    0.557646    -11.939834    1.474011    -3.743912    4.177562    0.000000    0.000000    0.000000    
-37.105526    93.353081    34.564556    0.680459    -1.024854    86.681572    0.760497    -5.363108    1.694415    0.916712    3.062185    1.634303    -4.240112    1.626333    -3.621495    13.805387    3.954733    -1.693424    13.030046    -1.133105    5.946466    -13.627460    7.770026    -11.856291    4.118720    0.407923    -3.703448    19.124321    -0.240159    -4.635071    -13.527119    1.087483    2.224555    17.422136    0.852109    4.022385    -5.667061    -0.427927    5.766038    -14.392493    -0.054238    -0.699581    3.345776    8.572018    0.550362    -3.628860    -5.173711    10.272285    4.852663    -4.471475    5.892820    0.000000    0.000000    0.000000    -1.860112    2.927707    -0.990517    2.261541    0.473435    -11.942174    1.460659    -3.678595    4.224389    0.000000    0.000000    0.000000    
-37.129612    93.356667    34.567513    0.623517    -1.028310    86.593231    0.706126    -5.340048    1.714962    0.979559    3.032625    1.656125    -4.569010    1.644420    -4.022597    14.130484    3.753289    -2.007635    13.013896    -1.189989    5.979462    -13.641038    7.770708    -11.850587    4.115267    0.429008    -3.721578    19.052866    -0.215819    -4.636579    -13.567621    1.068563    2.197248    17.434631    0.860806    4.054032    -5.623467    -0.424485    5.790026    -14.569588    -0.027952    -0.879172    3.350616    8.550096    0.547548    -3.635520    -5.242191    10.339952    4.846917    -4.434441    5.906709    0.000000    0.000000    0.000000    -1.816260    2.924190    -1.096718    2.177096    0.302203    -11.976408    1.545021    -3.536351    4.452381    0.000000    0.000000    0.000000    
-37.153023    93.358231    34.571865    0.570268    -1.031244    86.518646    0.672792    -5.330275    1.731151    0.994966    3.044499    1.673396    -4.547407    1.574879    -4.376193    13.917348    3.569566    -2.378214    13.046754    -1.242063    6.006260    -13.662628    7.819845    -11.821199    4.126761    0.386080    -3.796815    18.865007    -0.252404    -4.664502    -13.601448    1.037942    2.151832    17.459904    0.889190    4.089712    -5.606301    -0.398471    5.803732    -14.553552    0.013560    -0.999371    3.357980    8.518507    0.518335    -3.639072    -5.287310    10.382352    4.854286    -4.415137    5.949525    0.000000    0.000000    0.000000    -1.815581    2.867261    -1.112985    2.186761    0.259535    -11.933236    1.561128    -3.485735    4.496017    0.000000    0.000000    0.000000    
-37.184597    93.355881    34.572723    0.504614    -1.022525    86.460693    0.616756    -5.328257    1.740583    1.029492    3.054913    1.684440    -4.532486    1.479307    -4.751954    13.666526    3.419190    -2.779021    13.063560    -1.287489    6.024098    -13.682178    7.819769    -11.815849    4.132918    0.374230    -3.789080    18.730761    -0.266459    -4.711989    -13.624080    1.000975    2.121495    17.473362    0.971894    4.101701    -5.637567    -0.388421    5.796361    -14.623075    0.044723    -1.147914    3.355309    8.455440    0.503625    -3.642895    -5.309873    10.386319    4.845069    -4.409041    5.999963    0.000000    0.000000    0.000000    -1.832339    2.793214    -1.099303    2.210209    0.225863    -11.910734    1.533067    -3.472579    4.506231    0.000000    0.000000    0.000000    
-37.196690    93.355515    34.577717    0.479621    -1.020263    86.392517    0.569690    -5.323770    1.751219    1.066950    3.093154    1.695948    -4.769605    1.432198    -5.141869    13.874026    3.342622    -3.118637    13.056344    -1.312600    6.041595    -13.683073    7.819945    -11.809451    4.151164    0.324379    -3.820022    18.628664    -0.296980    -4.631329    -13.650436    0.992392    2.108316    17.457172    0.977327    4.120029    -5.616962    -0.332270    5.780602    -14.580101    0.103586    -1.187308    3.360201    8.454452    0.518142    -3.661762    -5.349975    10.400671    4.848423    -4.384839    6.035947    0.000000    0.000000    0.000000    -1.845169    2.787215    -0.978757    2.234628    0.150201    -11.962111    1.543247    -3.423562    4.502139    0.000000    0.000000    0.000000    
-37.214943    93.352425    34.582996    0.442156    -1.022722    86.339432    0.482390    -5.322115    1.725881    1.247883    3.115803    1.669521    -5.420590    1.387988    -5.550310    14.559533    3.335845    -3.373957    12.916759    -1.296501    6.085433    -13.634871    7.836334    -11.775037    4.162819    0.224312    -3.892304    18.723265    -0.374183    -4.487021    -13.867770    1.022540    2.161500    17.514021    0.946309    4.157094    -5.566000    -0.305423    5.740119    -14.703391    0.144869    -1.332188    3.365981    8.427464    0.530672    -3.666716    -5.381681    10.449659    4.867710    -4.370832    6.017859    0.000000    0.000000    0.000000    -1.842718    2.747680    -1.007221    2.241084    0.123975    -11.920226    1.515580    -3.427981    4.538561    0.000000    0.000000    0.000000    
